<?xml version="1.0" encoding="UTF-8"?><svg xmlns="http://www.w3.org/2000/svg" class="interstitial" enable-background="new 0 0 343 66" height="60px" preserveAspectRatio="xMidYMid meet" viewBox="0 0 343 66" width="310px"><defs><style>.cls-1{fill:#d12d2c;}</style></defs><title/><g id="_2"><path class="cls-1" d="M121.8,14.56a2.7,2.7,0,0,0-2.71,2.67V29.79h-20V17.23a2.7,2.7,0,0,0-2.71-2.67,2.74,2.74,0,0,0-2.71,2.67V48.06a2.75,2.75,0,0,0,2.76,2.67,2.69,2.69,0,0,0,2.66-2.67V34.54h20V48.06a2.71,2.71,0,0,0,5.42,0V17.23a2.7,2.7,0,0,0-2.71-2.67Z"/><path class="cls-1" d="M141.59,46.83c-5.2,0-8.13-4.38-8.13-9.3s2.93-9.24,8.13-9.24,8.13,4.38,8.13,9.24-2.87,9.3-8.13,9.3Zm0-22.81c-8.13,0-13.22,6.09-13.22,13.52s5.09,13.57,13.22,13.57S154.81,45,154.81,37.53,149.77,24,141.59,24Z"/><path class="cls-1" d="M174.17,35.66c.27-3.53,2.76-7.69,8-7.69a7.68,7.68,0,0,1,8,7.69Zm8-11.64c-7.64,0-13.12,6-13.12,13.52,0,8.12,5.75,13.57,13.55,13.57a15.35,15.35,0,0,0,9.16-2.78,1.88,1.88,0,0,0,.87-1.6,1.93,1.93,0,0,0-2-1.92,1.72,1.72,0,0,0-1.08.27,11.31,11.31,0,0,1-6.5,2.08,8.54,8.54,0,0,1-8.89-8h17.83c1.84,0,2.87-.85,2.87-2.3,0-6.78-4.88-12.82-12.74-12.82Z"/><path class="cls-1" d="M200.23,13.38a3.12,3.12,0,0,0-3.15,3,3.16,3.16,0,0,0,3.15,3.1,3.12,3.12,0,0,0,3.14-3.1,3.08,3.08,0,0,0-3.14-3Z"/><path class="cls-1" d="M202.72,48.33V26.79a2.45,2.45,0,0,0-2.44-2.41,2.41,2.41,0,0,0-2.44,2.41V48.33a2.4,2.4,0,0,0,2.39,2.4,2.46,2.46,0,0,0,2.49-2.4Z"/><path class="cls-1" d="M216.85,35c-3.25-.75-6.07-1.5-6.07-3.74,0-2.08,2.06-3.37,5.37-3.37a11,11,0,0,1,6.45,2,1.9,1.9,0,0,0,1.08.37,2,2,0,0,0,1.14-3.58A14.57,14.57,0,0,0,216.09,24c-6.4,0-10,3.53-10,7.64,0,5.55,5.2,6.73,9.65,7.75,3.36.75,6.34,1.6,6.34,4.17,0,2.19-2,3.69-5.64,3.69a12.79,12.79,0,0,1-7.37-2.46,2.28,2.28,0,0,0-1.2-.37,2.07,2.07,0,0,0-2.11,2.08,2.12,2.12,0,0,0,.92,1.71,15.62,15.62,0,0,0,9.54,2.88c6.88,0,10.57-3.47,10.57-7.91,0-5.93-5.42-7.16-10-8.17Z"/><path class="cls-1" d="M232.89,44.37a3.35,3.35,0,0,0-3.36,3.31A3.4,3.4,0,0,0,232.89,51a3.45,3.45,0,0,0,3.41-3.36,3.4,3.4,0,0,0-3.41-3.31Z"/><path class="cls-1" d="M274.58,46.83c-5.2,0-8.13-4.38-8.13-9.3s2.93-9.24,8.13-9.24,8.13,4.38,8.13,9.24-2.87,9.3-8.13,9.3Zm0-22.81c-8.13,0-13.22,6.09-13.22,13.52s5.09,13.57,13.22,13.57S287.8,45,287.8,37.53,282.77,24,274.58,24Z"/><path class="cls-1" d="M320.47,24a11.15,11.15,0,0,0-8.91,4.81c-.82-2.78-3.15-4.81-7.1-4.81A11.38,11.38,0,0,0,296,28.29v-1.5a2.46,2.46,0,0,0-2.5-2.4,2.4,2.4,0,0,0-2.39,2.4V48.33a2.41,2.41,0,0,0,2.44,2.4,2.45,2.45,0,0,0,2.44-2.4V33.81c1.3-1.87,3.85-5,6.4-5,3.31,0,4.61,1.44,4.61,4.43V48.33a2.45,2.45,0,0,0,2.44,2.4,2.41,2.41,0,0,0,2.44-2.4V33.64c1.25-1.87,3.85-4.82,6.51-4.82,3.2,0,4.55,1.44,4.55,4.43V48.33a2.4,2.4,0,0,0,2.39,2.4,2.46,2.46,0,0,0,2.5-2.4V31.82c0-5.18-2.53-7.8-7.35-7.8Z"/><path class="cls-1" d="M172.74,42.26c-1.32,0-3.67,4.57-6.65,4.57-1.68,0-2.55-1.34-2.55-3.15V28.88H167a2.11,2.11,0,1,0,0-4.22h-3.41V19.74a2.45,2.45,0,0,0-2.44-2.4,2.41,2.41,0,0,0-2.44,2.4v4.92h-2.49a2.11,2.11,0,1,0,0,4.22h2.49V44.74c0,4.06,2.11,6.36,6.23,6.36a8.13,8.13,0,0,0,3.74-.75c1.9-.91,4.54-2.94,4.54-3.85,0-1.18.81-4.25-.44-4.25Z"/><path class="cls-1" d="M264.38,38a3.66,3.66,0,0,0-2.69,1.43c-2.88,4.8-6.56,7.55-10.21,7.43-5.15-.17-8.46-4-8.46-9.3s3.31-9.24,8.46-9.24a7.33,7.33,0,0,1,5.26,2,2.22,2.22,0,0,0,1.46.53,2.17,2.17,0,0,0,2.17-2.19,2.26,2.26,0,0,0-.76-1.6,11.76,11.76,0,0,0-8.35-3c-7.91,0-13.33,5.77-13.33,13.52s5.42,13.57,13.33,13.57a12.9,12.9,0,0,0,9-3.39A20.47,20.47,0,0,0,264.67,42c.56-1,1-4-.29-4Z"/><path class="cls-1" d="M342.07,14.67a.92.92,0,0,0-.86.61l-1.09,2.81L339,15.27a.92.92,0,0,0-1.79.33v4a.58.58,0,0,0,.57.57.57.57,0,0,0,.55-.57V16.23L339.83,20a.32.32,0,0,0,.6,0l1.44-3.72v3.36a.57.57,0,1,0,1.13,0v-4a.93.93,0,0,0-.93-.94Z"/><path class="cls-1" d="M334.17,20.17a.58.58,0,0,0,.56-.57V15.73h1.1a.5.5,0,0,0,0-1H332.5a.5.5,0,0,0,0,1h1.1v3.86a.58.58,0,0,0,.57.57Z"/><path class="cls-1" d="M55.17,3.67A7.33,7.33,0,0,0,47.83,11V22.92L29.5,22V9.17a9.17,9.17,0,1,0-18.33,0V56.83a9.17,9.17,0,1,0,18.33,0V42.17H47.83V56.83a7.33,7.33,0,1,0,14.67,0V11a7.33,7.33,0,0,0-7.33-7.33Z"/><path class="cls-1" d="M36.83,14.67v5.87l3.67.18V12.83a9.17,9.17,0,0,1,1.61-5.17,7.33,7.33,0,0,0-5.28,7Z"/><path class="cls-1" d="M40.5,44H36.83v9.17a7.33,7.33,0,0,0,5.28,7A9.17,9.17,0,0,1,40.5,55V44Z"/><path class="cls-1" d="M46,44H42.33V55a7.34,7.34,0,0,0,5.28,7A9.17,9.17,0,0,1,46,56.83V44Z"/><path class="cls-1" d="M42.33,12.83v8L46,21V11a9.17,9.17,0,0,1,1.61-5.17,7.33,7.33,0,0,0-5.28,7Z"/><path class="cls-1" d="M4.66,8.65A9.17,9.17,0,0,0,.17,16.5V51.33a9.17,9.17,0,0,0,4.49,7.85A11,11,0,0,1,3.83,55V12.83a11,11,0,0,1,.83-4.18Z"/><path class="cls-1" d="M9.33,9.17A11,11,0,0,1,10.16,5a9.17,9.17,0,0,0-4.49,7.85V55a9.17,9.17,0,0,0,6,8.56,11,11,0,0,1-2.33-6.73V9.17Z"/></g></svg>